# xmcd
#
# Track frame offsets: 
#        150
#        28823
#        66562
#        85695
#        109778
#        127402
#        152721
#        173931
#        192223
#        212346
#        234269
#        252876
#        265401
#
# Disc length: 3880 seconds
#
# Revision: 0
# Processed by: cddbd v1.5.2PL0 Copyright (c) Steve Scherf et al.
# Submitted via: ExactAudioCopy v0.95b4
#
DISCID=b70f260d
DTITLE=Eddie Martin - Blue To The Bone
DYEAR=1900
DGENRE=Blues
TTITLE0=Blue To The Bone
TTITLE1=AutumnBlues
TTITLE2=The Fumble
TTITLE3=Edge Of The Line
TTITLE4=You Thrill Me
TTITLE5=Something For Nothing
TTITLE6=Big Enough Lever
TTITLE7=Revolution Of Love
TTITLE8=On Your Own
TTITLE9=Sad Time
TTITLE10=Protest Letter
TTITLE11=The Birds And The Bees
TTITLE12=No Place To Go
EXTD=
EXTT0=
EXTT1=
EXTT2=
EXTT3=
EXTT4=
EXTT5=
EXTT6=
EXTT7=
EXTT8=
EXTT9=
EXTT10=
EXTT11=
EXTT12=
PLAYORDER=
